<svg xmlns="http://www.w3.org/2000/svg" viewBox="0 0 190 100">
  <rect fill="none" width="190" height="100"/>
  <g>
      <path fill="#003057" d="M73.6,59.2c2.4,2.3,3.6,5.5,3.5,8.7c-0.1,1.8,0,3.7,0,5.7c0,1,0,1.8,0,2.7v4.7H18.3v-4.7c0-1,0-1.9,0-2.9
        c0-2.5,0-5.1,0.1-7.7c0.3-2.3,1.3-4.4,2.9-6c4-4.1,9.1-7,14.7-8.4c-4.6-5.4-6.4-12.6-4.8-19.6c2-7.4,8.7-12.6,16.4-12.6h0.1
        c0.7,0,1.4,0.1,2.2,0.2c9.4,1.3,16,9.9,14.7,19.3c-0.5,4.7-2.3,9.1-5.3,12.7C64.7,52.6,69.7,55.3,73.6,59.2z M72.5,67.7
        c0.1-2-0.7-3.9-2.2-5.3c-3.6-3.4-8-5.7-12.8-6.8c-0.1,0-0.2,0-0.4,0c-0.5,0-1.1,0.2-1.5,0.5c-2.4,1.5-5.1,2.3-7.9,2.4
        c-2.8-0.1-5.6-0.9-7.9-2.4c-0.4-0.3-0.9-0.4-1.4-0.5H38c-5,1.1-9.6,3.6-13.2,7.2c-0.9,0.9-1.5,1.9-1.7,3.1c-0.1,3.4,0,6.8,0,10.3
        h49.3C72.4,73.3,72.4,70.5,72.5,67.7z M60.1,36.3c0,0,0-0.1,0-0.1c0-6.8-5.5-12.4-12.4-12.4c-5.6,0-10.4,3.8-11.9,9.1
        c-1.4,6.9,1.3,14.1,7.1,18.2c1.4,1,3.1,1.5,4.8,1.5c1.8,0,3.5-0.6,5-1.7c4.2-3.1,6.9-7.8,7.3-13.1C60,37.4,60.1,36.9,60.1,36.3z"
        />
    <g>
      <path fill="#003057" d="M168.2,59.2c2.4,2.3,3.6,5.5,3.5,8.7c-0.1,1.8,0,3.7,0,5.7c0,1,0,1.8,0,2.7v4.7h-58.8v-4.7
        c0-1,0-1.9,0-2.9c0-2.5,0-5.1,0.1-7.7c0.3-2.3,1.3-4.4,2.9-6c4-4.1,9.1-7,14.7-8.4c-4.6-5.4-6.4-12.6-4.8-19.6
        c2-7.4,8.7-12.6,16.4-12.6h0.1c0.7,0,1.4,0.1,2.2,0.2c9.4,1.3,16,9.9,14.7,19.3c-0.5,4.7-2.3,9.1-5.3,12.7
        C159.3,52.6,164.2,55.3,168.2,59.2z M167,67.7c0.1-2-0.7-3.9-2.2-5.3c-3.6-3.4-8-5.7-12.8-6.8c-0.1,0-0.3,0-0.4,0
        c-0.5,0-1.1,0.2-1.5,0.5c-2.4,1.5-5.1,2.3-7.9,2.4c-2.8-0.1-5.6-0.9-7.9-2.4c-0.4-0.3-0.9-0.4-1.4-0.5h-0.3
        c-5,1.1-9.6,3.6-13.2,7.2c-0.9,0.8-1.5,1.9-1.7,3.1c-0.1,3.4,0,6.8,0,10.3H167C167,73.3,166.9,70.5,167,67.7z M154.6,36.3
        c0,0,0-0.1,0-0.1c0-6.8-5.5-12.4-12.4-12.4c-5.6,0-10.4,3.8-11.9,9.1c-1.4,6.9,1.3,14.1,7.1,18.2c1.4,1,3.1,1.5,4.8,1.5
        c1.8,0,3.5-0.6,5-1.7c4.2-3.1,6.9-7.8,7.3-13.1C154.5,37.4,154.6,36.9,154.6,36.3z"/>
      <path fill="#7A8FA7" d="M164.8,62.4c1.4,1.4,2.2,3.3,2.2,5.3c-0.1,2.8,0,5.6,0,8.5h-49.3c0-3.5-0.1-6.9,0-10.3
        c0.2-1.2,0.8-2.3,1.7-3.1c3.6-3.6,8.2-6.1,13.2-7.2h0.3c0.5,0.1,1,0.2,1.4,0.5c2.4,1.5,5.1,2.4,7.9,2.4c2.8-0.1,5.6-0.9,7.9-2.4
        c0.5-0.3,1-0.4,1.5-0.5c0.1,0,0.3,0,0.4,0C156.9,56.7,161.3,59.1,164.8,62.4z"/>
      <path fill="#7A8FA7" d="M154.6,36.2c0,0,0,0.1,0,0.1c0,0.5-0.1,1.1-0.1,1.6c-0.4,5.2-3,10-7.3,13.1c-1.4,1.1-3.2,1.7-5,1.7
        c-1.7,0-3.4-0.6-4.8-1.5c-5.7-4.1-8.5-11.3-7.1-18.2c1.5-5.4,6.3-9.1,11.9-9.1C149,23.8,154.6,29.4,154.6,36.2z"/>
    </g>
    <path fill="#003057" d="M124.4,73.6v7.3H65.6v-7.6c0-2.5,0-5.1,0.1-7.7c0.3-2.3,1.3-4.4,2.9-6c4-4.1,9.1-7,14.7-8.4
      c-4.6-5.4-6.4-12.7-4.8-19.6c2-7.4,8.7-12.6,16.4-12.6h0.1c0.7,0,1.4,0.1,2.2,0.1c9.4,1.3,16,9.9,14.7,19.3
      c-0.5,4.7-2.3,9.1-5.3,12.7c5.4,1.3,10.3,4,14.3,7.9c2.4,2.3,3.6,5.5,3.5,8.7C124.4,69.8,124.4,71.6,124.4,73.6z"/>
  </g>
</svg>
