<svg xmlns="http://www.w3.org/2000/svg" viewBox="0 0 150 150">
<rect fill="none" width="150" height="150"/>
<path fill="#003057" d="M112.9,28.3c-0.2,0-0.3,0-0.5,0H97.6l0.3-2.2c0-3.1-2.6-5.7-5.7-5.7h-6.5c-0.5-4.6-5.2-8.2-10.9-8.2
  c-5.7,0-10.3,3.6-10.9,8.2h-6.5c-3.2,0-5.7,2.5-5.7,5.7l0.3,2.2H37.6c-0.2,0-0.5,0-0.9,0c-1.7,0.3-4.6,1.6-4.6,6.9v96.6
  c0,2.6,0.7,4.2,1.6,5.1s2.1,1.4,3,1.5l76.2,0c1.8-0.3,4.8-1.4,4.8-6.7V35.2C117.7,29.7,114.7,28.5,112.9,28.3z M74.9,15.3
  c1.4,0,2.6,1.2,2.6,2.6c0,1.3-0.9,2.3-2.1,2.6c-0.2,0-0.3,0-0.5,0c-0.2,0-0.3,0-0.5,0c-1.2-0.2-2.1-1.3-2.1-2.6
  C72.3,16.4,73.5,15.3,74.9,15.3z M112,126.1c0,5.2-3,6.4-4.8,6.6v0.1H42.4v-0.2c-1.8-0.3-4.6-1.5-4.6-6.7V41c0-5.3,2.8-6.7,4.6-6.9
  c0.3,0,0.6,0,0.9,0h9.7l0.5,3.3c0,3.1,2.5,5.7,5.7,5.7h31.5c3.1,0,5.7-2.5,5.7-5.7l0.5-3.3h10c0.1,0,0.3,0,0.5,0
  c1.7,0.2,4.8,1.4,4.8,6.9V126.1z"/>
<g>
  <g>
    <path fill="#003057" d="M103.4,119.6c0,1.7-1.4,3-3.1,3H66.6c-1.7,0-3.1-1.4-3.1-3l0,0c0-1.7,1.4-3,3.1-3h33.7
      C102,116.6,103.4,117.9,103.4,119.6L103.4,119.6z"/>
    <path fill="#003057" d="M55.9,114.5l-4.4,6.3l-2.5-1.7c-0.8-0.5-1.8-0.3-2.3,0.4c-0.5,0.8-0.3,1.8,0.4,2.3c6.3,4.4,4.2,5,11.5-5.4
      c0.5-0.8,0.3-1.8-0.4-2.3C57.4,113.6,56.4,113.8,55.9,114.5z"/>
  </g>
  <g>
    <path fill="#003057" d="M103.4,103.5c0,1.7-1.4,3-3.1,3H66.6c-1.7,0-3.1-1.4-3.1-3l0,0c0-1.7,1.4-3,3.1-3h33.7
      C102,100.5,103.4,101.9,103.4,103.5L103.4,103.5z"/>
    <path fill="#003057" d="M55.9,98.5l-4.4,6.3L49,103c-0.8-0.5-1.8-0.3-2.3,0.4c-0.5,0.8-0.3,1.8,0.4,2.3c6.3,4.4,4.2,5,11.5-5.4
      c0.5-0.8,0.3-1.8-0.4-2.3C57.4,97.5,56.4,97.7,55.9,98.5z"/>
  </g>
  <g>
    <path fill="#003057" d="M103.4,87.4c0,1.7-1.4,3-3.1,3H66.6c-1.7,0-3.1-1.4-3.1-3l0,0c0-1.7,1.4-3,3.1-3h33.7
      C102,84.4,103.4,85.8,103.4,87.4L103.4,87.4z"/>
    <path fill="#003057" d="M55.9,82.4l-4.4,6.3L49,86.9c-0.8-0.5-1.8-0.3-2.3,0.4c-0.5,0.8-0.3,1.8,0.4,2.3c6.3,4.4,4.2,5,11.5-5.4
      c0.5-0.8,0.3-1.8-0.4-2.3C57.4,81.4,56.4,81.6,55.9,82.4z"/>
  </g>
  <g>
    <path fill="#003057" d="M103.4,71.4c0,1.7-1.4,3-3.1,3H66.6c-1.7,0-3.1-1.4-3.1-3l0,0c0-1.7,1.4-3,3.1-3h33.7
      C102,68.3,103.4,69.7,103.4,71.4L103.4,71.4z"/>
    <path fill="#003057" d="M55.9,66.3l-4.4,6.3L49,70.9c-0.8-0.5-1.8-0.3-2.3,0.4c-0.5,0.8-0.3,1.8,0.4,2.3c6.3,4.4,4.2,5,11.5-5.4
      c0.5-0.8,0.3-1.8-0.4-2.3C57.4,65.4,56.4,65.5,55.9,66.3z"/>
  </g>
  <g>
    <path fill="#003057" d="M103.4,55.3c0,1.7-1.4,3-3.1,3H66.6c-1.7,0-3.1-1.4-3.1-3l0,0c0-1.7,1.4-3,3.1-3h33.7
      C102,52.3,103.4,53.6,103.4,55.3L103.4,55.3z"/>
    <path fill="#003057" d="M55.9,50.2l-4.4,6.3L49,54.8c-0.8-0.5-1.8-0.3-2.3,0.4c-0.5,0.8-0.3,1.8,0.4,2.3c6.3,4.4,4.2,5,11.5-5.4
      c0.5-0.8,0.3-1.8-0.4-2.3C57.4,49.3,56.4,49.5,55.9,50.2z"/>
  </g>
</g>
</svg>
