<svg xmlns="http://www.w3.org/2000/svg" viewBox="0 0 150 150">
<g>
  <path fill="#003057" d="M115.8,104.7c-2.8,2.9-23.6,20.9-26.7,22.2c-2.7,1.1-26.6,2-36.2,0.8c-3-0.4-8.9-2-13.6-3.3
    c-4.1-1.1-6.3-1.7-7.3-1.8c-2.1-0.2-11.8-0.1-13.9-0.1V95.1c2,0,11.1,0.2,14-0.3c1.6-0.3,3.3-1.3,5.5-2.6c3.1-1.9,7-4.2,10.6-4.2
    c5.7,0,10.2,1.9,12.4,2.9c1.2,0.5,2.9,1.3,4.4,2.1c2.2,1.1,4.2,2.1,5.8,2.7c2.4,0.8,7.2,0.8,13.4,0.7c1.3,0,2.5-0.1,3.4-0.1
    c3.1,0,6.5,2,6.5,4.8c0,2.7-1.5,7-5.5,7H63.8c-1.3,0-2.3,1-2.3,2.3c0,1.3,1,2.3,2.3,2.3h24.9c6.5,0,10-5.9,10.1-11.4
    c3.9-2.3,14.1-8.5,15.6-9.9c0.7-0.6,1.5-1.5,2.4-2.5c1.8-2.1,4.4-4.9,6.7-5.9c3.3-1.4,7.4-0.6,8.2,0.2
    C130.4,86.3,118.6,101.7,115.8,104.7"/>
  <path fill="#003057" d="M103.2,22.1c-12.4,0-16.9,14.8-16.9,14.8s-4.5-14.8-17-14.8c-9.4,0-20.1,7.4-16.1,24.3
    c4,16.9,33,37.9,33,37.9s0.1-0.1,0.1-0.2c0,0.1,0.1,0.1,0.1,0.1s29-21,32.9-37.9C123.3,29.5,112.6,22.1,103.2,22.1"/>
</g>
</svg>
