<?xml version="1.0" encoding="utf-8"?>
<!-- Generator: Adobe Illustrator 25.2.3, SVG Export Plug-In . SVG Version: 6.00 Build 0)  -->
<svg version="1.1" id="Layer_1" xmlns="http://www.w3.org/2000/svg" xmlns:xlink="http://www.w3.org/1999/xlink" x="0px" y="0px"
	 viewBox="0 0 556.2 555.5" enable-background="new 0 0 556.2 555.5" xml:space="preserve">
<circle fill="#FFFFFF" stroke="#0C4EA6" stroke-width="2" stroke-miterlimit="10" cx="278" cy="278.1" r="275.7"/>
<g>
	<path d="M459.4,543.8v-18.9h-6.9v-2.5H469v2.5h-6.9v18.9H459.4z"/>
	<path d="M471.8,543.8v-21.5h4.1l4.9,15.2c0.5,1.4,0.8,2.5,1,3.2c0.2-0.8,0.6-1.9,1.1-3.4l5-14.9h3.7v21.5H489v-18l-6.1,18h-2.5
		l-6-18.3v18.3H471.8z"/>
</g>
<g>
	<path fill="#F58904" d="M214.6,219.1c0.5,0,0.9-0.1,1.3-0.1c12,0,24.1,0,36.1,0.1c4.9,0.1,9.8,1.1,14.3,3.1
		c9.1,4.1,13.5,11.4,13.9,21.2c0.4,10.1-4,17.5-13.1,22.5c0.7,0.4,1.2,0.7,1.7,0.9c10.9,4.7,16.3,14.3,15,26
		c-0.5,4.4-1.6,8.5-4.1,12.2c-3.6,5.4-8.9,8.4-15.1,9.8c-3.9,0.9-8,1.5-11.9,1.6c-12.3,0.2-24.5,0.1-36.8,0.1
		c-0.4,0-0.8-0.1-1.3-0.1C214.6,284,214.6,251.7,214.6,219.1z M223.6,308.1c0.4,0.1,0.7,0.1,0.9,0.1c9.5,0,19.1,0.1,28.6-0.1
		c3.3-0.1,6.6-0.6,9.8-1.4c5.1-1.3,9-4.3,11-9.3c1.4-3.4,1.5-7.1,1.1-10.7c-0.6-6.5-3.9-11.3-10-13.6c-3-1.2-6.4-2-9.6-2.1
		c-10.2-0.3-20.5-0.2-30.7-0.2c-0.3,0-0.6,0.1-1,0.2C223.6,283.3,223.6,295.7,223.6,308.1z M223.6,227.3c0,12.1,0,23.9,0,35.8
		c0.5,0,0.8,0.1,1.1,0.1c8.1,0,16.1,0.1,24.2,0c3.1-0.1,6.3-0.3,9.4-1c6.3-1.3,11-4.6,12.5-11.3c0.5-2.4,0.8-5,0.7-7.4
		c-0.4-6.5-3.2-11.4-9.5-13.9c-2.2-0.9-4.6-1.5-7-1.7c-4.7-0.4-9.5-0.4-14.3-0.5C235.1,227.3,229.4,227.3,223.6,227.3z"/>
	<path fill="#F58904" d="M116.5,316.6c-2.5,0-5.9,0-8.4,0c0,0-0.4-0.7-0.9-1.5c-5.5-8.8-10.9-17.7-16.4-26.5
		c-10.4-16.9-20.9-33.7-31.3-50.6c-0.4-0.6-0.9-1.3-1.5-2c0,26.6,0,53.6,0,80.4c-3,0-5.7,0-8.7,0c0-32.3,0-64.7,0-97.4
		c2.6,0,6,0.1,8.6,0.1c0,0-0.1-0.1,0.3,0.4c6.2,9.9,12.8,20.8,18.9,30.7c9.9,16.1,19.8,32.1,29.7,48.2c0.2,0.3,0.4,0.6,1,1.4
		c0-27.2,0-53.9,0-80.7c3,0,5.8,0,8.7,0C116.5,251.5,116.5,283.9,116.5,316.6z"/>
	<path fill="#F58904" d="M374.5,270.3c0,12.6,0,24.9,0,37.6c4.5,0,8.9,0,13.3,0c4.5,0,9,0,13.6,0c4.4,0,8.9,0,13.3,0
		c4.4,0,8.8,0,13.4,0c0,2.9,0,5.6,0,8.5c-20.8,0-41.5,0-62.3,0c0-32.5,0-64.8,0-97.3c20.8,0,41.5,0,62.3,0c0,2.8,0,5.5,0,8.5
		c-17.8,0-35.6,0-53.5,0c0,11.4,0,22.6,0,34.1c15.5,0,31,0,46.7,0c0,2.9,0,5.6,0,8.5C405.7,270.3,390.2,270.3,374.5,270.3z"/>
	<path fill="#F58904" d="M123,316.4c12.5-32.6,24.9-64.9,37.4-97.3c3.4,0,6.7,0,10.3,0c12.4,32.3,24.9,64.7,37.4,97.3
		c-3.2,0-6.2,0-9.4,0c-3.6-9.5-7.3-19.1-11-28.7c-14.8,0-29.4,0-44.3,0c-3.6,9.5-7.2,19-10.8,28.6
		C129.5,316.4,126.4,316.4,123,316.4z M146.5,279.7c12.8,0,25.3,0,38.2,0c-6.3-16.7-12.8-33.9-19.1-50.4c0,0-0.2,0.3-0.3,0.8
		C159,246.6,152.8,263,146.5,279.7z"/>
	<path fill="#F58904" d="M437.9,219.1c0.4,0,0.8-0.1,1.1-0.1c13.1,0,26.1,0,39.2,0.1c4.5,0,8.9,1,13.2,2.7
		c7.9,3.2,12.6,9.1,14.1,17.4c1,5.5,0.9,11.1-0.7,16.5c-1.9,6.6-5.9,11.3-12.2,14.2c-5.3,2.4-11,3.2-16.7,3.2
		c-8.8,0.1-17.6,0-26.4,0c-0.9,0-1.8,0-2.9,0c0,14.4,0,28.8,0,43.2c-3,0-5.8,0-8.7,0C437.9,284,437.9,251.7,437.9,219.1z
		 M446.7,227.4c0,12.7,0,25.1,0,37.5c0.4,0,0.8,0.1,1.1,0.1c8.5,0,16.9,0.1,25.4,0c3.3,0,6.6-0.3,9.8-0.9c7-1.4,12.1-5.1,13.7-12.5
		c0.6-2.9,0.8-5.9,0.4-8.9c-1-7.3-4.8-12.1-11.9-13.8c-4-0.9-8.1-1.3-12.2-1.4c-7.7-0.2-15.3-0.1-23-0.1
		C448.9,227.4,447.8,227.4,446.7,227.4z"/>
	<path fill="#F58904" d="M359.5,232.6c-2.2,2.1-4.2,3.9-6.4,5.9c-1.3-1.3-2.6-2.6-3.9-3.9c-6.3-6.1-13.8-8.6-22.5-8
		c-4.8,0.4-9.4,1.5-13.5,4.1c-6,3.8-9.5,9.5-11.7,16.1c-1.9,5.5-2.7,11.1-2.9,16.8c-0.3,7.9,0.1,15.8,2.4,23.5
		c2.1,6.7,5.2,12.7,11.1,16.9c3.8,2.7,8.1,4.2,12.8,4.8c3.5,0.4,6.9,0.3,10.3-0.3c6.7-1.2,11.8-5,16.2-9.8c0.5-0.6,1.1-1.2,1.7-1.9
		c2.1,1.9,4.2,3.8,6.3,5.7c-7.2,9.1-16,15-27.9,15.4c-5.9,0.2-11.8-0.4-17.3-2.5c-9.8-3.8-16.1-11-20-20.6
		c-4.3-10.6-5.3-21.7-4.6-33c0.4-6.3,1.5-12.5,3.5-18.4c3-8.6,7.9-15.8,15.9-20.6c5.5-3.3,11.6-4.9,18-4.9c4,0,8.1,0.3,12,1.1
		C347.7,220.6,353.9,226,359.5,232.6z"/>
</g>
<g>
	<g>
		<path fill="#F58904" d="M430.8,364.4c-32.2,50.4-88.6,83.8-152.8,83.8s-120.6-33.4-152.8-83.8H53.3c35.3,89.6,122.6,153,224.7,153
			s189.5-63.4,224.7-153H430.8z"/>
	</g>
</g>
<g>
	<path fill="#0C4EA6" d="M119.7,179.7c0.3,0.1,0.4,0.4,0.2,0.7l-2.3,4.8c-1,0-5.3-0.2-12.6-0.5c-0.1,0-0.2,0-0.5,0
		c-1.6-0.1-2.9,0.1-3.7,0.4c-0.8,0.4-1.7,1.3-2.5,2.8l11.3,5.4l1-2.1c0.1-0.3,0.4-0.4,0.7-0.2l2.4,1.2c0.3,0.1,0.4,0.4,0.2,0.7
		l-3.7,7.7c-0.1,0.3-0.4,0.4-0.7,0.2l-2.4-1.2c-0.3-0.1-0.4-0.4-0.2-0.7l0.9-1.8L82.5,185l-0.9,1.8c-0.1,0.3-0.4,0.4-0.7,0.2
		l-2.4-1.1c-0.3-0.1-0.4-0.4-0.2-0.7l4.3-8.9c1.5-3.1,3-5.1,4.5-6.1c2.7-1.7,5.7-1.7,9.1-0.1c3.5,1.7,5.2,4.4,5.2,8.3
		c0,1.2-0.1,2.3-0.5,3.3c1.2-0.7,2.6-1,4.4-1l0.4,0l9.7,0.3l1.1-2.2c0.1-0.3,0.4-0.4,0.7-0.2L119.7,179.7z M94.4,173.9
		c-2-1-3.8-1-5.2-0.2c-1.1,0.6-2.1,2-3.1,4.2l-1.6,3.3l10.5,5.1l1.6-3.3c1-2,1.4-3.7,1.3-5C97.7,176.3,96.5,174.9,94.4,173.9z"/>
	<path fill="#0C4EA6" d="M131.9,162.1l-10.8,16.5c-0.2,0.3-0.4,0.3-0.7,0.1l-2.2-1.5c-0.3-0.2-0.3-0.4-0.1-0.7l1.1-1.7l-23.4-15.4
		l-1.1,1.7c-0.2,0.3-0.4,0.3-0.7,0.1l-2.2-1.4c-0.3-0.2-0.3-0.4-0.1-0.7l10.8-16.5l5.8,3.8c0.3,0.2,0.3,0.4,0.1,0.7l-1.4,2.2
		c-0.2,0.3-0.4,0.3-0.7,0.1l-2.5-1.6l-5.4,8.2l9.3,6.1l6-9.1c0.2-0.3,0.4-0.3,0.7-0.1l2.2,1.4c0.3,0.2,0.3,0.4,0.1,0.7l-6,9.1
		l10.5,6.9l5.4-8.2l-2.5-1.6c-0.3-0.2-0.3-0.4-0.1-0.7l1.4-2.2c0.2-0.3,0.4-0.4,0.7-0.2L131.9,162.1z"/>
	<path fill="#0C4EA6" d="M144.4,141.2c0.7,3.6-0.1,6.7-2.4,9.4c-2.8,3.3-6.4,4.4-10.9,3.3c-3.1-0.8-6.7-2.8-10.6-6.2
		c-3.9-3.4-6.5-6.6-7.7-9.6c-1.7-4.2-1.1-7.9,1.7-11.2c2.1-2.5,5.1-3.6,8.8-3.5l3.6,3.1c0.3,0.2,0.3,0.5,0.1,0.7l-1.8,2
		c-0.2,0.3-0.5,0.3-0.7,0.1l-2.4-2.1c-2,0-3.6,0.7-4.8,2c-1.6,1.9-1.9,4.3-0.7,7.2c0.9,2.4,3.1,5,6.6,8c3.5,3,6.4,4.8,8.9,5.3
		c3,0.7,5.4,0.2,7-1.7c1.2-1.4,1.6-3,1.3-4.9l-7.4-6.4l-3.1,3.6c-0.2,0.2-0.4,0.2-0.7,0l-2-1.7c-0.3-0.2-0.3-0.4-0.1-0.7l5.7-6.6
		L144.4,141.2z"/>
	<path fill="#0C4EA6" d="M158.2,133c0.2,0.2,0.2,0.5,0,0.7l-7.6,7.1c-0.2,0.2-0.5,0.2-0.7,0l-1.8-2c-0.2-0.2-0.2-0.5,0-0.7l2.3-2.1
		l-19.1-20.5l-2.3,2.1c-0.2,0.2-0.5,0.2-0.7,0l-1.8-1.9c-0.2-0.2-0.2-0.5,0-0.7l7.6-7.1c0.2-0.2,0.5-0.2,0.7,0l1.8,1.9
		c0.2,0.2,0.2,0.5,0,0.7l-2.3,2.1l19.1,20.5l2.3-2.1c0.2-0.2,0.5-0.2,0.7,0L158.2,133z"/>
	<path fill="#0C4EA6" d="M171.3,111.3c2.3,2.9,2.8,6.2,1.3,9.7c-0.7,1.7-2,3.3-3.9,4.6c-2.5,1.9-5.5,3-8.8,3.4l-3.6-4.8
		c-0.2-0.3-0.2-0.5,0.1-0.7l2.1-1.6c0.3-0.2,0.5-0.2,0.7,0.1l2.1,2.8c1.8-0.4,3.3-1,4.6-2c0.9-0.7,1.5-1.4,2-2.2
		c0.3-0.4,0.6-1.1,1.1-2c0.4-1.3,0.1-2.6-0.9-3.9c-0.4-0.5-0.9-1-1.5-1.5c-1.8-1.3-4.5-1.6-8.1-0.8c-0.5,0.1-1.1,0.3-1.8,0.4
		c-2.2,0.5-4.1,0.6-5.6,0.4c-2.2-0.4-4.2-1.6-5.8-3.6c-2.4-3-2.9-5.9-1.6-8.9c0.7-1.6,2-3.1,3.8-4.5c2.6-1.9,5.3-3,8.1-3.3l3.3,4.4
		c0.2,0.3,0.2,0.5-0.1,0.7l-2.1,1.6c-0.3,0.2-0.5,0.2-0.7-0.1l-1.8-2.4c-1.5,0.4-2.8,1.1-4,2c-0.9,0.7-1.5,1.4-2,2.1
		c-1.3,2-1.1,4,0.4,5.8c1.1,1.3,2.7,2,4.6,2c0.6,0,2.2-0.3,5-0.8c0.5-0.1,1-0.2,1.6-0.3C165,107,168.8,108.1,171.3,111.3z"/>
	<path fill="#0C4EA6" d="M183.6,83.5c0.2,0.3,0.1,0.5-0.2,0.7l-2.3,1.3c-0.3,0.2-0.5,0.1-0.7-0.2l-2.1-3.7l-4.2,2.4l13.9,24.2
		l2.5-1.4c0.3-0.2,0.5-0.1,0.7,0.2l1.3,2.3c0.2,0.3,0.1,0.5-0.2,0.7l-8.7,5c-0.3,0.2-0.5,0.1-0.7-0.2l-1.3-2.3
		c-0.2-0.3-0.1-0.5,0.2-0.7l2.5-1.4l-13.9-24.2l-4.2,2.4l2.1,3.7c0.2,0.3,0.1,0.5-0.2,0.7l-2.3,1.3c-0.3,0.2-0.5,0.1-0.7-0.2l-4-7
		l18.5-10.6L183.6,83.5z"/>
	<path fill="#0C4EA6" d="M218.1,98.4l-18.2,7.5c-0.3,0.1-0.5,0-0.7-0.3l-1-2.5c-0.1-0.3,0-0.5,0.3-0.7l1.8-0.8l-10.7-25.9l-1.8,0.8
		c-0.3,0.1-0.5,0-0.7-0.3l-1-2.4c-0.1-0.3,0-0.5,0.3-0.7l18.2-7.5l2.7,6.5c0.1,0.3,0,0.5-0.3,0.7l-2.4,1c-0.3,0.1-0.5,0-0.7-0.3
		l-1.1-2.8l-9,3.7l4.2,10.3l10-4.1c0.3-0.1,0.5,0,0.7,0.3l1,2.4c0.1,0.3,0,0.5-0.3,0.7l-10,4.1l4.8,11.7l9-3.7l-1.1-2.8
		c-0.1-0.3,0-0.5,0.3-0.7l2.4-1c0.3-0.1,0.6-0.1,0.7,0.3L218.1,98.4z"/>
	<path fill="#0C4EA6" d="M243.8,90.8c0.1,0.3,0,0.5-0.4,0.6l-5.1,1.3c-0.7-0.8-3.3-4.1-7.8-10c0-0.1-0.1-0.2-0.3-0.3
		c-1-1.3-1.9-2.1-2.7-2.5c-0.8-0.4-2.1-0.5-3.7-0.1l3.2,12.1l2.2-0.6c0.3-0.1,0.5,0,0.6,0.4l0.7,2.6c0.1,0.3,0,0.5-0.4,0.6l-8.2,2.1
		c-0.3,0.1-0.5,0-0.6-0.4l-0.7-2.6c-0.1-0.3,0-0.5,0.4-0.6l1.9-0.5l-7.1-27.1l-1.9,0.5c-0.3,0.1-0.5,0-0.6-0.4l-0.7-2.5
		c-0.1-0.3,0-0.5,0.4-0.6l9.6-2.5c3.3-0.9,5.8-1,7.6-0.5c3,1,5,3.2,6,6.8c1,3.7,0,6.8-2.9,9.3c-0.9,0.8-1.8,1.4-2.8,1.8
		c1.3,0.4,2.5,1.3,3.6,2.7l0.2,0.4l6,7.6l2.4-0.6c0.3-0.1,0.5,0,0.6,0.4L243.8,90.8z M231.9,67.8c-0.6-2.2-1.7-3.5-3.3-4.1
		c-1.2-0.4-2.9-0.3-5.2,0.3l-3.5,0.9l2.9,11.3l3.5-0.9c2.2-0.6,3.7-1.3,4.6-2.2C232.2,71.8,232.5,70.1,231.9,67.8z"/>
	<path fill="#0C4EA6" d="M265.2,88.7l-19.6,2.4c-0.3,0-0.5-0.1-0.6-0.4l-0.3-2.7c0-0.3,0.1-0.5,0.4-0.6l2-0.2l-3.5-27.8l-2,0.2
		c-0.3,0-0.5-0.1-0.6-0.4l-0.3-2.6c0-0.3,0.1-0.5,0.4-0.6l19.6-2.4l0.9,6.9c0,0.3-0.1,0.5-0.5,0.6l-2.6,0.3c-0.3,0-0.5-0.1-0.6-0.4
		l-0.4-3l-9.7,1.2l1.4,11.1l10.8-1.3c0.3,0,0.5,0.1,0.6,0.4L261,72c0,0.3-0.1,0.5-0.4,0.6l-10.8,1.3l1.6,12.5l9.7-1.2l-0.4-3
		c0-0.3,0.1-0.5,0.4-0.6l2.6-0.3c0.4,0,0.6,0.1,0.6,0.4L265.2,88.7z"/>
	<path fill="#0C4EA6" d="M291.3,71c-0.1,3.3-0.2,6-0.4,7.9c-0.5,3.8-1.9,6.5-4.3,7.9c-1.8,1.1-4.3,1.7-7.6,1.6l-10.5-0.2
		c-0.3,0-0.5-0.2-0.5-0.5l0-2.7c0-0.3,0.2-0.5,0.5-0.5l2,0l0.5-28l-2,0c-0.3,0-0.5-0.2-0.5-0.5l0-2.6c0-0.3,0.2-0.5,0.5-0.5
		l10.5,0.2c3.2,0.1,5.7,0.6,7.4,1.7c2.3,1.5,3.7,4.1,4.1,7.9C291.3,64.6,291.4,67.4,291.3,71z M287.1,71c0.1-3.1,0-5.7-0.1-7.6
		c-0.3-2.8-1-4.6-2.2-5.4c-1-0.7-2.8-1.1-5.2-1.1l-4.3-0.1l-0.4,27.7l4.3,0.1c2.4,0,4.1-0.3,5.2-0.9c1.3-0.8,2.1-2.6,2.4-5.3
		C286.9,76.6,287,74.1,287.1,71z"/>
	<path fill="#0C4EA6" d="M331.7,69.8c-0.8,3.7-2.7,6.1-5.8,7.2c-1.9,0.7-4.5,0.7-7.9,0l-3.6-0.8L312,87.9l3,0.6
		c0.3,0.1,0.5,0.3,0.4,0.6l-0.5,2.6c-0.1,0.3-0.3,0.5-0.6,0.4l-9.1-1.9c-0.3-0.1-0.5-0.3-0.4-0.6l0.5-2.6c0.1-0.3,0.3-0.5,0.6-0.4
		l1.9,0.4l5.7-27.4l-1.9-0.4c-0.3-0.1-0.5-0.3-0.4-0.6l0.5-2.6c0.1-0.3,0.3-0.5,0.6-0.4l9.7,2c3.5,0.7,5.9,1.7,7.2,3
		C331.7,63,332.5,66,331.7,69.8z M327.6,68.9c0.5-2.3,0.1-4.1-1.2-5.4c-0.9-0.9-2.6-1.6-5.1-2.1l-3.6-0.8l-2.5,12l3.6,0.8
		c2.3,0.5,4.1,0.5,5.4,0.1C325.9,72.8,327.1,71.3,327.6,68.9z"/>
	<path fill="#0C4EA6" d="M349.8,102.3c-0.1,0.3-0.3,0.4-0.6,0.3l-5-1.8c-0.1-1-0.4-5.2-0.9-12.6c0-0.1,0-0.2-0.1-0.4
		c-0.1-1.6-0.4-2.8-0.8-3.6c-0.5-0.8-1.5-1.5-3-2.2l-4.2,11.8l2.2,0.8c0.3,0.1,0.4,0.3,0.3,0.6l-0.9,2.5c-0.1,0.3-0.3,0.4-0.6,0.3
		l-8-2.8c-0.3-0.1-0.4-0.3-0.3-0.6l0.9-2.5c0.1-0.3,0.3-0.4,0.6-0.3l1.9,0.7l9.3-26.4l-1.9-0.7c-0.3-0.1-0.4-0.3-0.3-0.6l0.9-2.5
		c0.1-0.3,0.3-0.4,0.6-0.3l9.3,3.3c3.2,1.1,5.4,2.4,6.6,3.8c2,2.5,2.4,5.5,1.1,9c-1.3,3.6-3.8,5.7-7.6,6.1c-1.2,0.2-2.3,0.1-3.3-0.1
		c0.8,1.1,1.3,2.5,1.5,4.3l0,0.4l0.7,9.7l2.3,0.8c0.3,0.1,0.4,0.3,0.3,0.6L349.8,102.3z M352.8,76.6c0.8-2.1,0.6-3.9-0.4-5.2
		c-0.8-1-2.3-1.9-4.5-2.7l-3.4-1.2l-3.9,11l3.4,1.2c2.1,0.7,3.8,1,5.1,0.7C350.8,80.1,352,78.8,352.8,76.6z"/>
	<path fill="#0C4EA6" d="M379.2,98.1c-2.4,4.6-4.8,7.8-7.4,9.7c-3.6,2.7-7.3,3.1-11,1.2c-3.7-1.9-5.5-5.1-5.4-9.6
		c0.1-3.2,1.3-7.1,3.6-11.6c2.4-4.6,4.9-7.9,7.4-9.7c3.6-2.7,7.3-3,11-1.1c3.7,1.9,5.5,5.1,5.5,9.6
		C382.8,89.6,381.5,93.5,379.2,98.1z M375.4,96.1c2.1-4.1,3.2-7.4,3.2-9.9c0.1-3-0.9-5.1-2.9-6.1c-2-1.1-4.3-0.7-6.7,1.2
		c-2.1,1.6-4.1,4.4-6.2,8.4c-2.1,4-3.1,7.3-3.2,9.9c-0.1,3.1,0.9,5.1,2.9,6.2c2,1.1,4.3,0.7,6.7-1.2
		C371.3,102.9,373.3,100.2,375.4,96.1z"/>
	<path fill="#0C4EA6" d="M409.7,101.3c-0.2,0.3-0.4,0.3-0.7,0.1l-1.8-1.2l-24.4,21.7l-3.5-2.4L391.1,89l-1.8-1.2
		c-0.3-0.2-0.3-0.4-0.1-0.7l1.5-2.2c0.2-0.3,0.4-0.3,0.7-0.1l4.8,3.3l-9.4,23l-2,4.3l3.2-3.4l18.2-16.9l4.8,3.3
		c0.3,0.2,0.3,0.4,0.1,0.7L409.7,101.3z"/>
	<path fill="#0C4EA6" d="M401.6,136.5c-0.2,0.3-0.5,0.3-0.7,0l-7.8-6.8c-0.3-0.2-0.3-0.5,0-0.7l1.8-2c0.2-0.3,0.5-0.3,0.7,0l2.3,2
		l18.4-21.1l-2.3-2c-0.3-0.2-0.3-0.5,0-0.7l1.7-2c0.2-0.3,0.5-0.3,0.7,0l7.8,6.8c0.3,0.2,0.3,0.5,0,0.7l-1.7,2
		c-0.2,0.3-0.5,0.3-0.7,0l-2.3-2L401,131.7l2.3,2c0.3,0.2,0.3,0.5,0,0.7L401.6,136.5z"/>
	<path fill="#0C4EA6" d="M432.1,143.5c-2.4,2.2-4.5,4-6.1,5.2c-3.1,2.3-6,3.1-8.7,2.4c-2-0.5-4.2-2-6.4-4.4l-7.1-7.7
		c-0.2-0.2-0.2-0.5,0-0.7l2-1.8c0.2-0.2,0.5-0.2,0.7,0l1.3,1.5l20.6-19l-1.3-1.5c-0.2-0.2-0.2-0.5,0-0.7l1.9-1.8
		c0.2-0.2,0.5-0.2,0.7,0l7.1,7.7c2.2,2.4,3.5,4.6,3.8,6.6c0.5,2.7-0.5,5.5-2.9,8.4C436.7,139,434.8,141,432.1,143.5z M429.2,140.3
		c2.3-2.1,4.1-3.9,5.4-5.3c1.8-2.1,2.6-3.9,2.3-5.3c-0.2-1.2-1.1-2.7-2.8-4.5l-2.9-3.1l-20.4,18.8l2.9,3.1c1.6,1.8,3,2.8,4.2,3.2
		c1.4,0.4,3.3-0.3,5.5-1.9C425,144.1,426.9,142.5,429.2,140.3z"/>
	<path fill="#0C4EA6" d="M432.4,174.4l-11.3-16.2c-0.2-0.3-0.2-0.5,0.1-0.7l2.2-1.5c0.3-0.2,0.5-0.2,0.7,0.1l1.1,1.6l23-16l-1.1-1.6
		c-0.2-0.3-0.2-0.5,0.1-0.7l2.2-1.5c0.3-0.2,0.5-0.2,0.7,0.1l11.3,16.2l-5.7,4c-0.3,0.2-0.5,0.1-0.7-0.2l-1.5-2.2
		c-0.2-0.3-0.2-0.5,0.1-0.7l2.5-1.7l-5.6-8l-9.1,6.4l6.2,8.9c0.2,0.3,0.2,0.5-0.1,0.7l-2.1,1.5c-0.3,0.2-0.5,0.2-0.7-0.1l-6.2-8.9
		L428,161l5.6,8l2.5-1.7c0.3-0.2,0.5-0.2,0.7,0.1l1.5,2.2c0.2,0.3,0.2,0.6-0.1,0.7L432.4,174.4z"/>
	<path fill="#0C4EA6" d="M445.4,197.8c-0.3,0.2-0.5,0.1-0.7-0.2l-2.4-4.7c0.6-0.8,3.3-4.1,8-9.8c0-0.1,0.1-0.2,0.3-0.4
		c1-1.2,1.7-2.3,1.9-3.2s0-2.1-0.7-3.7l-11.1,5.7l1,2c0.2,0.3,0.1,0.5-0.2,0.7l-2.4,1.2c-0.3,0.2-0.5,0.1-0.7-0.2l-3.9-7.6
		c-0.2-0.3-0.1-0.5,0.2-0.7l2.4-1.2c0.3-0.2,0.5-0.1,0.7,0.2l0.9,1.8l24.9-12.8l-0.9-1.8c-0.2-0.3-0.1-0.5,0.2-0.7l2.3-1.2
		c0.3-0.2,0.5-0.1,0.7,0.2l4.5,8.8c1.6,3,2.3,5.5,2.1,7.3c-0.3,3.2-2.1,5.6-5.4,7.3c-3.4,1.8-6.7,1.5-9.8-0.8
		c-1-0.7-1.7-1.5-2.3-2.3c-0.1,1.4-0.8,2.7-1.9,4.1l-0.3,0.3l-6.1,7.5l1.1,2.2c0.2,0.3,0.1,0.5-0.2,0.7L445.4,197.8z M465.2,181.2
		c2-1,3.1-2.4,3.3-4.1c0.1-1.2-0.4-2.9-1.4-5l-1.7-3.2l-10.4,5.3l1.7,3.2c1,2,2.1,3.3,3.2,4C461.4,182.3,463.1,182.3,465.2,181.2z"
		/>
</g>
<g>
	<path fill="#FFFFFF" d="M114.4,398.5c-2.4,1.8-5,2.2-7.5,1.2c-1.6-0.6-3.2-2-4.8-4.3l-0.8-1.1l-6.2,4.7l1.4,1.9
		c0.2,0.2,0.1,0.4-0.1,0.5l-2.4,1.8c-0.2,0.2-0.4,0.1-0.6-0.1l-5.2-7c-0.2-0.2-0.1-0.4,0.1-0.5l2.4-1.8c0.2-0.2,0.4-0.1,0.6,0.1
		l1,1.4l16.1-12l-1-1.4c-0.2-0.2-0.1-0.4,0.1-0.5l2.4-1.8c0.2-0.2,0.4-0.1,0.6,0.1l4.7,6.3c1.7,2.3,2.6,4.2,2.8,5.8
		C118.1,394.3,116.9,396.6,114.4,398.5z M111.7,394.8c1.2-0.9,1.8-1.9,1.7-3.1c-0.1-0.9-0.7-2-1.7-3.4l-0.8-1.1l-6.2,4.6l0.8,1.1
		c1,1.4,2,2.3,2.8,2.6C109.3,395.9,110.4,395.7,111.7,394.8z"/>
	<path fill="#FFFFFF" d="M115.8,428.8c-0.2,0.2-0.4,0.2-0.6,0l-5.5-6c-0.2-0.2-0.2-0.4,0-0.6l2.2-2c0.2-0.2,0.4-0.2,0.6,0l1.2,1.3
		l6.5-5.9l-5-5.5l-6.5,5.9l1.2,1.3c0.2,0.2,0.2,0.4,0,0.6l-2.2,2c-0.2,0.2-0.4,0.2-0.6,0l-5.5-6c-0.2-0.2-0.2-0.4,0-0.6l2.2-2
		c0.2-0.2,0.4-0.2,0.6,0l1.2,1.3l14.8-13.6l-1.2-1.3c-0.2-0.2-0.2-0.4,0-0.6l2.2-2c0.2-0.2,0.4-0.2,0.6,0l5.5,6
		c0.2,0.2,0.2,0.4,0,0.6l-2.2,2c-0.2,0.2-0.4,0.2-0.6,0l-1.2-1.3l-5.6,5.1l5,5.5l5.6-5.1l-1.2-1.3c-0.2-0.2-0.2-0.4,0-0.6l2.2-2
		c0.2-0.2,0.4-0.2,0.6,0l5.5,6c0.2,0.2,0.2,0.4,0,0.6l-2.2,2c-0.2,0.2-0.4,0.2-0.6,0l-1.2-1.3l-14.8,13.6l1.2,1.3
		c0.2,0.2,0.2,0.4,0,0.6L115.8,428.8z"/>
	<path fill="#FFFFFF" d="M141.7,434c-2.6,2.9-5.1,4.9-7.4,5.8c-3.4,1.4-6.4,0.9-8.9-1.3c-2.6-2.3-3.3-5.2-2.4-8.7
		c0.7-2.4,2.3-5.1,4.9-8c2.7-3,5.1-4.9,7.4-5.9c3.4-1.3,6.4-0.9,8.9,1.4c2.6,2.3,3.3,5.2,2.4,8.7C146,428.4,144.3,431.1,141.7,434z
		 M138.2,430.9c2.2-2.5,3.5-4.5,4.1-6.3c0.6-1.9,0.3-3.3-0.8-4.2c-1-0.9-2.5-1-4.3-0.2c-1.7,0.7-3.6,2.3-5.8,4.7
		c-2.1,2.4-3.5,4.5-4,6.3c-0.6,1.9-0.3,3.3,0.7,4.2c1,0.9,2.5,1,4.3,0.2C134.1,434.9,136,433.3,138.2,430.9z"/>
	<path fill="#FFFFFF" d="M160.8,440.4c-0.2,0.2-0.3,0.2-0.5,0.1l-2.4-1.8c-0.2-0.2-0.2-0.3-0.1-0.6l2.2-3l-2-1.5l-12,16.2l1.9,1.4
		c0.2,0.2,0.3,0.4,0.1,0.6l-1.8,2.4c-0.2,0.2-0.4,0.2-0.6,0.1l-7.5-5.6c-0.2-0.2-0.2-0.3-0.1-0.6l1.8-2.4c0.2-0.2,0.3-0.2,0.5-0.1
		l1.9,1.4l12-16.2l-2-1.5l-2.2,3c-0.2,0.2-0.3,0.2-0.5,0.1l-2.4-1.8c-0.2-0.2-0.2-0.3-0.1-0.6l4.5-6.1l13.7,10.1L160.8,440.4z"/>
	<path fill="#FFFFFF" d="M174.4,456.2c-2,3.3-4.1,5.7-6.2,7c-3.1,2-6.1,2.1-9,0.3s-4.2-4.5-3.9-8.1c0.2-2.5,1.4-5.4,3.4-8.8
		c2.1-3.4,4.2-5.8,6.2-7.1c3.1-1.9,6.1-2,9-0.2c2.9,1.8,4.2,4.5,3.9,8.1C177.6,449.9,176.5,452.8,174.4,456.2z M170.4,453.8
		c1.7-2.8,2.7-5.1,2.9-6.9c0.2-1.9-0.3-3.3-1.5-4c-1.2-0.7-2.6-0.5-4.2,0.5c-1.5,1-3.1,2.9-4.8,5.7c-1.7,2.8-2.6,5.1-2.8,6.9
		c-0.2,2,0.3,3.3,1.4,4c1.2,0.7,2.6,0.5,4.3-0.6C167.1,458.5,168.7,456.6,170.4,453.8z"/>
	<path fill="#FFFFFF" d="M198,456.2c-0.1,0.2-0.3,0.3-0.5,0.2l-1.6-0.8l-15.6,19l-4-1.9l5.3-24l-1.6-0.8c-0.2-0.1-0.3-0.3-0.2-0.5
		l1.3-2.7c0.1-0.2,0.3-0.3,0.5-0.2l5.3,2.6l-3.9,14.4l-2.2,7.1l4.2-6.1l8.9-11.9l5.3,2.6c0.2,0.1,0.3,0.3,0.2,0.5L198,456.2z"/>
	<path fill="#FFFFFF" d="M211.5,472.3c-1.4,3.7-3,6.4-4.8,8.1c-2.7,2.5-5.6,3.2-8.8,2c-3.2-1.2-5-3.6-5.4-7.3
		c-0.2-2.5,0.3-5.6,1.7-9.2c1.4-3.7,3-6.5,4.8-8.1c2.7-2.5,5.6-3.1,8.8-1.9c3.2,1.2,5,3.6,5.3,7.2
		C213.5,465.5,212.9,468.6,211.5,472.3z M207.1,470.7c1.2-3.1,1.7-5.5,1.5-7.3c-0.2-2-0.9-3.2-2.2-3.7c-1.3-0.5-2.7-0.1-4.1,1.3
		c-1.3,1.3-2.5,3.5-3.7,6.5c-1.1,3-1.6,5.5-1.5,7.3c0.2,2,0.9,3.2,2.2,3.7c1.3,0.5,2.7,0,4.1-1.3C204.8,475.9,206,473.8,207.1,470.7
		z"/>
	<path fill="#FFFFFF" d="M228.4,484.7l-2.3,6l-15.4-4.2c-0.2-0.1-0.3-0.2-0.3-0.5l0.8-2.9c0.1-0.3,0.2-0.3,0.5-0.3l1.7,0.5l5.3-19.4
		l-1.7-0.5c-0.2-0.1-0.3-0.2-0.3-0.5l0.8-2.9c0.1-0.3,0.2-0.3,0.5-0.3l7.9,2.1c0.2,0.1,0.3,0.2,0.3,0.5l-0.8,2.9
		c-0.1,0.3-0.2,0.3-0.5,0.3l-1.7-0.5l-5.2,18.9l6,1.6l0.9-2.3c0.1-0.2,0.3-0.3,0.5-0.2l2.7,1.1C228.4,484.3,228.5,484.5,228.4,484.7
		z"/>
	<path fill="#FFFFFF" d="M249.1,474.6c0,0.3-0.2,0.4-0.5,0.3l-2.9-0.5c-0.3,0-0.4-0.2-0.3-0.5l0.7-3.7l-2.4-0.4l-3.6,19.8l2.3,0.4
		c0.3,0.1,0.4,0.2,0.3,0.5l-0.5,3c0,0.3-0.2,0.4-0.5,0.3l-9.2-1.7c-0.3,0-0.4-0.2-0.3-0.5l0.5-3c0-0.3,0.2-0.4,0.5-0.3l2.3,0.4
		l3.6-19.8l-2.4-0.4l-0.7,3.7c0,0.3-0.2,0.4-0.5,0.3l-2.9-0.5c-0.3,0-0.4-0.2-0.3-0.5l1.4-7.5l16.8,3L249.1,474.6z"/>
	<path fill="#FFFFFF" d="M268,496.2c0,0.3-0.2,0.4-0.4,0.4l-8-0.7c-0.3,0-0.4-0.2-0.4-0.4l0.3-3c0-0.3,0.2-0.4,0.4-0.4l1.5,0.1
		l-0.5-4l-6.1-0.6l-1.2,3.8l1.5,0.1c0.3,0,0.4,0.2,0.4,0.4l-0.3,3c0,0.3-0.2,0.4-0.4,0.4l-8-0.7c-0.3,0-0.4-0.2-0.4-0.4l0.3-3
		c0-0.3,0.2-0.4,0.4-0.4l1.8,0.2l8.7-23.2l4.1,0.4l4.4,24.4l1.8,0.2c0.3,0,0.4,0.2,0.4,0.4L268,496.2z M260.4,484.3l-0.9-7.2
		l-0.3-4.1l-1,3.9l-2.2,6.9L260.4,484.3z"/>
	<path fill="#FFFFFF" d="M281.7,496.2c0,0.3-0.1,0.4-0.4,0.4l-9.4-0.2c-0.3,0-0.4-0.1-0.4-0.4l0-3c0-0.3,0.1-0.4,0.4-0.4l2.4,0
		l0.3-20.1l-2.4,0c-0.3,0-0.4-0.1-0.4-0.4l0.1-3c0-0.3,0.1-0.4,0.4-0.4l9.4,0.2c0.3,0,0.4,0.1,0.4,0.4l0,3c0,0.3-0.1,0.4-0.4,0.4
		l-2.4,0l-0.3,20.1l2.4,0c0.3,0,0.4,0.1,0.4,0.4L281.7,496.2z"/>
	<path fill="#FFFFFF" d="M302.6,492c-1.8,2.6-4,4-6.7,4.2c-3.5,0.3-6.3-1.2-8.2-4.3c-1.3-2.1-2.1-5.2-2.4-9.1s0.1-7.1,1.1-9.4
		c1.5-3.4,4-5.2,7.5-5.4c2.7-0.2,5.1,0.9,7.2,3.2l0.3,4.5c0,0.3-0.1,0.4-0.4,0.4l-2.9,0.2c-0.3,0-0.4-0.1-0.4-0.4l-0.2-2.8
		c-0.9-0.8-2.1-1.2-3.3-1.1c-1.6,0.1-2.8,1.1-3.6,3c-0.7,1.6-0.9,4.1-0.7,7.4c0.2,3.3,0.8,5.7,1.8,7.2c1.1,1.7,2.4,2.5,4,2.4
		c1.3-0.1,2.3-0.6,3.2-1.5l-0.2-2.8c0-0.3,0.1-0.4,0.4-0.4l2.9-0.2c0.3,0,0.4,0.1,0.4,0.4L302.6,492z"/>
	<path fill="#FFFFFF" d="M337.3,488.6c0.1,0.3,0,0.4-0.3,0.5l-7.9,1.7c-0.3,0.1-0.4,0-0.5-0.3l-0.6-3c-0.1-0.3,0-0.4,0.3-0.5
		l1.5-0.3l-1.7-3.7l-6,1.3l0,4l1.5-0.3c0.3-0.1,0.4,0,0.5,0.3l0.6,3c0.1,0.3,0,0.4-0.3,0.5l-7.9,1.7c-0.3,0.1-0.4,0-0.5-0.3l-0.6-3
		c-0.1-0.3,0-0.4,0.3-0.5l1.7-0.4l1.3-24.8l4-0.9l11.6,22l1.7-0.4c0.3-0.1,0.4,0,0.5,0.3L337.3,488.6z M326.5,479.5l-3-6.6l-1.5-3.8
		l0.3,4.1l0,7.3L326.5,479.5z"/>
	<path fill="#FFFFFF" d="M354,475.4c1,2.9,0.5,5.5-1.4,7.8c-0.9,1.1-2.3,1.9-4,2.5c-2.3,0.7-4.9,0.8-7.6,0.2l-1.7-5.2
		c-0.1-0.3,0-0.4,0.2-0.5l2.8-0.9c0.2-0.1,0.4,0,0.5,0.3l0.9,2.7c1.2,0.1,2.3-0.1,3.5-0.4c1-0.3,1.8-0.9,2.4-1.8
		c0.5-0.9,0.6-1.9,0.3-2.9c-0.3-1-1-1.8-2-2.2c-0.8-0.3-2.2-0.6-4.3-0.9c-1.9-0.2-3.4-0.6-4.5-1.2c-1.7-0.9-2.9-2.4-3.6-4.4
		c-0.8-2.3-0.8-4.4,0.2-6.2c0.9-1.7,2.5-2.9,4.8-3.6c2.4-0.8,4.7-0.8,7.1-0.2l1.6,4.9c0.1,0.3,0,0.4-0.2,0.5l-2.8,0.9
		c-0.2,0.1-0.4,0-0.5-0.3l-0.7-2.3c-1.2,0-2.3,0.2-3.2,0.5c-2.1,0.7-2.8,2.1-2,4.2c0.5,1.3,1.6,2.1,3.3,2.5c1.5,0.2,2.9,0.3,4.4,0.5
		C350.6,470.5,352.8,472.3,354,475.4z"/>
	<path fill="#FFFFFF" d="M372.8,467.5c1.3,2.8,1.1,5.4-0.7,7.9c-0.8,1.2-2.1,2.1-3.8,2.8c-2.2,0.9-4.8,1.2-7.6,0.9l-2.2-5.1
		c-0.1-0.2,0-0.4,0.2-0.5l2.7-1.2c0.2-0.1,0.4,0,0.5,0.2l1.1,2.6c1.2,0,2.3-0.3,3.4-0.7c1-0.4,1.7-1.1,2.2-2c0.5-0.9,0.5-1.9,0-3
		c-0.4-1-1.2-1.7-2.2-2c-0.8-0.3-2.2-0.4-4.3-0.5c-1.9-0.1-3.4-0.3-4.6-0.8c-1.8-0.7-3.1-2.1-4-4.1c-1.1-2.3-1.2-4.3-0.4-6.2
		c0.8-1.8,2.3-3.1,4.4-4c2.3-1,4.6-1.3,7-0.9l2,4.7c0.1,0.2,0,0.4-0.2,0.5l-2.7,1.2c-0.2,0.1-0.4,0-0.5-0.2l-1-2.2
		c-1.2,0.1-2.2,0.4-3.2,0.8c-2,0.9-2.6,2.4-1.6,4.4c0.6,1.2,1.8,2,3.5,2.2c1.5,0,3,0.1,4.4,0.1C369,462.8,371.4,464.5,372.8,467.5z"
		/>
	<path fill="#FFFFFF" d="M389.1,451.9c1.9,3.4,2.9,6.4,3,8.9c0.2,3.7-1.2,6.3-4.2,7.9c-3,1.6-6,1.4-9-0.7c-2-1.5-4-3.9-5.9-7.3
		c-1.9-3.5-2.9-6.5-3-8.9c-0.1-3.7,1.3-6.3,4.3-7.9c3-1.6,6-1.4,9,0.7C385.2,445.9,387.2,448.4,389.1,451.9z M385,454.1
		c-1.6-2.9-3.1-4.9-4.5-5.9c-1.6-1.2-3-1.4-4.2-0.7c-1.2,0.7-1.8,2-1.6,3.9c0.1,1.8,1,4.2,2.5,7c1.6,2.8,3.1,4.8,4.6,5.9
		c1.6,1.2,3,1.4,4.2,0.8c1.2-0.7,1.8-2,1.7-4C387.4,459.3,386.6,457,385,454.1z"/>
	<path fill="#FFFFFF" d="M411.3,449.6c-0.2,3.1-1.5,5.5-3.7,7c-2.9,2-6,2.1-9.3,0.4c-2.2-1.2-4.4-3.4-6.7-6.7
		c-2.3-3.3-3.5-6.2-3.8-8.7c-0.4-3.7,0.8-6.5,3.8-8.5c2.2-1.5,4.9-1.8,7.9-0.9l2.5,3.7c0.1,0.2,0.1,0.4-0.1,0.5l-2.4,1.7
		c-0.2,0.1-0.4,0.1-0.5-0.1l-1.6-2.3c-1.2-0.2-2.4,0-3.4,0.8c-1.3,0.9-1.8,2.3-1.6,4.4c0.2,1.8,1.2,4,3.1,6.8
		c1.9,2.8,3.6,4.6,5.2,5.4c1.8,1,3.3,1,4.6,0.1c1.1-0.7,1.7-1.7,2-2.9l-1.6-2.3c-0.1-0.2-0.1-0.4,0.1-0.5l2.4-1.7
		c0.2-0.1,0.4-0.1,0.5,0.1L411.3,449.6z"/>
	<path fill="#FFFFFF" d="M424.7,442.7c0.2,0.2,0.1,0.4-0.1,0.6l-7.3,5.9c-0.2,0.2-0.4,0.1-0.6-0.1l-1.9-2.4
		c-0.2-0.2-0.1-0.4,0.1-0.6l1.8-1.5L404.2,429l-1.8,1.5c-0.2,0.2-0.4,0.1-0.6-0.1l-1.9-2.4c-0.2-0.2-0.1-0.4,0.1-0.6l7.3-5.9
		c0.2-0.2,0.4-0.1,0.6,0.1l1.9,2.4c0.2,0.2,0.1,0.4-0.1,0.6l-1.8,1.5l12.6,15.7l1.8-1.5c0.2-0.2,0.4-0.1,0.6,0.1L424.7,442.7z"/>
	<path fill="#FFFFFF" d="M443.3,425.7c0.2,0.2,0.2,0.4,0,0.6l-5.8,5.5c-0.2,0.2-0.4,0.2-0.6,0l-2.1-2.2c-0.2-0.2-0.2-0.4,0-0.6
		l1.1-1l-3.3-2.3l-4.4,4.2l2.1,3.4l1.1-1c0.2-0.2,0.4-0.2,0.6,0l2.1,2.2c0.2,0.2,0.2,0.4,0,0.6l-5.8,5.5c-0.2,0.2-0.4,0.2-0.6,0
		l-2.1-2.2c-0.2-0.2-0.2-0.4,0-0.6l1.3-1.2l-11.6-21.9l3-2.8l21.2,12.8l1.3-1.2c0.2-0.2,0.4-0.2,0.6,0L443.3,425.7z M429.3,423.5
		l-6-4.1l-3.2-2.5l2.3,3.3l3.7,6.2L429.3,423.5z"/>
	<path fill="#FFFFFF" d="M440.4,399.2c0.2,0.2,0.2,0.4,0,0.6l-2,2.2c-0.2,0.2-0.4,0.2-0.6,0l-2.8-2.5l-1.6,1.8l15,13.4l1.5-1.7
		c0.2-0.2,0.4-0.2,0.6-0.1l2.3,2c0.2,0.2,0.2,0.4,0,0.6l-6.2,7c-0.2,0.2-0.4,0.2-0.6,0l-2.3-2c-0.2-0.2-0.2-0.4,0-0.6l1.6-1.8
		l-15-13.4l-1.7,1.9l2.8,2.5c0.2,0.2,0.2,0.4,0,0.6l-2,2.2c-0.2,0.2-0.4,0.2-0.6,0l-5.7-5l11.3-12.7L440.4,399.2z"/>
	<path fill="#FFFFFF" d="M467.9,396.1l-9.6,12.9c-0.2,0.2-0.3,0.2-0.6,0.1l-2.4-1.8c-0.2-0.2-0.2-0.3-0.1-0.5l1-1.4l-16.1-12l-1,1.4
		c-0.2,0.2-0.3,0.2-0.6,0.1l-2.4-1.8c-0.2-0.2-0.2-0.3-0.1-0.5l9.6-12.9l5.3,3.9c0.2,0.2,0.2,0.3,0.1,0.5l-1.8,2.4
		c-0.2,0.2-0.3,0.2-0.6,0.1l-1.8-1.3l-3.5,4.7l5.6,4.2l4.4-5.9c0.2-0.2,0.3-0.2,0.5-0.1l2.4,1.8c0.2,0.2,0.2,0.3,0.1,0.5l-4.4,5.9
		l6.6,4.9l3.5-4.7l-1.8-1.3c-0.2-0.2-0.2-0.3-0.1-0.5l1.8-2.4c0.2-0.2,0.3-0.2,0.6-0.1L467.9,396.1z"/>
</g>
<line fill="none" stroke="#0C4EA6" stroke-width="12" stroke-miterlimit="10" x1="50.4" y1="344.4" x2="505" y2="344.4"/>
<path fill="#F58904" d="M332.3,174.2c-0.8-5.9-1.4-11.1-2.2-16.2c-0.8-5.4-1.1-8.5-2.4-16.3c-0.9-3.8-0.3-4.2-4-4.2
	c-2,0-4-1.5-5.8-2.5c-7.3-4.2-14-9.6-22.5-11.5c-6.3-1.4-11.4-1.3-15.9,3.8c-0.7,0.8-1.1,1.4-1.6,1.7h0c-0.4-0.3-0.9-0.9-1.6-1.7
	c-4.4-5.2-9.5-5.3-15.9-3.8c-8.5,1.9-15.2,7.3-22.5,11.5c-1.8,1.1-3.8,2.6-5.8,2.5c-3.7,0-3.1,0.4-4,4.2c-1.2,7.8-1.6,10.8-2.4,16.3
	c-0.7,5.1-1.4,10.3-2.2,16.2c-0.1,0.9-0.8,2.8,1.6,2.7c1.3-0.1,3.3-0.4,3.9-0.4c14.3-1,23.5-1.7,36.6-2.6c2.1,7,5.7,7.5,12.2,7.4
	c6.5,0.1,10.1-0.4,12.2-7.4c13,0.9,22.3,1.6,36.6,2.6c0.6,0,2.7,0.3,3.9,0.4C333.1,177,332.4,175,332.3,174.2z M272.4,172.5
	c-1.5-6-1.9-6.3-8.1-5.7c-8.6,0.8-17.2,1.5-25.8,2.2c-0.8,0.1-1.4,0.1-3,0.2c0.8-1.6,1.4-2.5,2.3-3.5c5.2-6.7,14.4-10.2,23.8-9.9
	c7.6,0.2,11.6,3.3,13.5,10.7c0.5,1.7,0.7,3.9,1,6C274.5,172.5,273.5,172.5,272.4,172.5z M317.6,169c-8.6-0.7-17.2-1.5-25.8-2.2
	c-6.2-0.6-6.7-0.3-8.1,5.7c-1.1,0-2.1,0-3.6,0c0.4-2.1,0.6-4.3,1-6c1.9-7.4,5.9-10.5,13.5-10.7c9.4-0.2,18.5,3.2,23.8,9.9
	c0.9,0.9,1.5,1.9,2.3,3.5C319,169.2,318.4,169.1,317.6,169z"/>
<circle fill="none" stroke="#0C4EA6" stroke-width="7" stroke-miterlimit="10" cx="278" cy="278.1" r="261.3"/>
</svg>
